<?xml version="1.0" encoding="UTF-8"?>
<svg width="1200pt" height="1200pt" version="1.1" viewBox="0 0 1200 1200" xmlns="http://www.w3.org/2000/svg">
 <g>
  <path d="m1168.8 670.8-3.6016-3.6016-276-154.8v-313.2c0-1.1992 0-3.6016-1.1992-4.8008 0-1.1992 0-2.3984-1.1992-2.3984l-279.6-157.2c-2.3984-1.1992-6-1.1992-9.6016 0l-283.2 156-3.5977 3.5977c-1.1992 1.1992-1.1992 2.3984-1.1992 4.8008v318l-276 150c-1.1992 1.1992-1.1992 1.1992-2.3984 2.3984l-1.1992 1.1992c-1.1992 1.1992-1.1992 2.3984-1.1992 4.8008v319.2c0 3.6016 1.1992 6 4.8008 8.3984l280.8 163.2h2.3984 2.3984c1.1992 0 3.6016 0 4.8008-1.1992l276-160.8 276 160.8h2.3984 2.3984c1.1992 0 3.6016 0 4.8008-1.1992l280.8-162c2.3984-1.1992 4.8008-4.8008 4.8008-8.3984v-318c-1.1992-1.2031-1.1992-2.4023-2.3984-4.8008zm-578.4-10.801-260.4-148.8v-297.6l260.4 134.4zm289.2 148.8-255.6-132 81.602-48 175.2-98.398 259.2 144zm-8.4023-297.6-174 100.8-87.602 49.199v-312l261.6-135.6zm-268.8-457.2 258 145.2-260.4 132-260.4-133.2zm-278.4 476.4 252 146.4-254.4 130.8-261.6-132zm-274.8 160.8 261.6 134.4v315.6l-261.6-152.4zm279.6 138 261.6-134.4v294l-261.6 152.4zm280.8-138 261.6 134.4v315.6l-261.6-152.4zm280.8 450v-314.4l261.6-134.4v296.4z"/>
  <path d="m262.8 859.2-160.8 90c-4.8008 2.3984-6 8.3984-3.6016 13.199 1.1992 2.3984 4.8008 4.8008 8.3984 4.8008 1.1992 0 3.6016 0 4.8008-1.1992l160.8-90c4.8008-2.3984 7.1992-7.1992 4.8008-12-2.3984-4.8008-7.1992-7.1992-12-4.8008h-2.3984z"/>
  <path d="m384 492c1.1992 0 3.6016 0 4.8008-1.1992l160.8-90c4.8008-2.3984 6-8.3984 3.6016-13.199-2.3984-4.8008-8.3984-6-13.199-3.6016l-160.8 90c-4.8008 2.3984-6 8.3984-3.6016 13.199 2.3984 2.4023 6 4.8008 8.3984 4.8008z"/>
  <path d="m819.6 859.2-160.8 88.801c-4.8008 2.3984-6 8.3984-3.6016 13.199 1.1992 3.6016 4.8008 4.8008 8.3984 4.8008 1.1992 0 3.6016 0 4.8008-1.1992l160.8-88.801c4.8008-2.3984 6-8.3984 3.6016-13.199-2.4023-4.8008-8.4023-6-13.199-3.6016z"/>
  <path d="m657.6 400.8 160.8 90c1.1992 1.1992 2.3984 1.1992 4.8008 1.1992 3.6016 0 7.1992-2.3984 8.3984-4.8008 2.3984-4.8008 1.1992-10.801-3.6016-13.199l-160.8-90c-4.8008-2.3984-10.801-1.1992-13.199 3.6016-2.3984 6-1.1992 10.797 3.6016 13.199z"/>
  <path d="m549.6 949.2-160.8-88.801c-4.8008-2.3984-9.6016-2.3984-13.199 2.3984-2.3984 4.8008-2.3984 9.6016 2.3984 13.199 1.1992 0 1.1992 1.1992 2.3984 1.1992l160.8 90c1.1992 1.1992 3.6016 1.1992 4.8008 1.1992 4.8008 0 9.6016-4.8008 9.6016-9.6016 0-4.793-2.4023-8.3945-6-9.5938z"/>
  <path d="m1106.4 949.2-160.8-88.801c-4.8008-2.3984-10.801-1.1992-13.199 3.6016-2.3984 4.8008-1.1992 10.801 3.6016 13.199l160.8 90c1.1992 1.1992 3.6016 1.1992 4.8008 1.1992 3.6016 0 7.1992-2.3984 8.3984-4.8008 2.3984-5.9961 1.1992-11.996-3.6016-14.398z"/>
 </g>
</svg>
