<svg xmlns="http://www.w3.org/2000/svg" xmlns:xlink="http://www.w3.org/1999/xlink" version="1.1" width="256" height="256" viewBox="0 0 256 256" xml:space="preserve">

<defs>
</defs>
<g style="stroke: none; stroke-width: 0; stroke-dasharray: none; stroke-linecap: butt; stroke-linejoin: miter; stroke-miterlimit: 10; fill: none; fill-rule: nonzero; opacity: 1;" transform="translate(1.4065934065934016 1.4065934065934016) scale(2.81 2.81)" >
	<path d="M 45 42.621 c -0.299 0 -0.598 -0.067 -0.874 -0.201 L 4.392 23.109 c -0.689 -0.334 -1.126 -1.033 -1.126 -1.799 s 0.437 -1.464 1.126 -1.799 l 39.734 -19.31 c 0.552 -0.269 1.196 -0.269 1.748 0 l 39.734 19.31 c 0.688 0.334 1.126 1.033 1.126 1.799 s -0.438 1.464 -1.126 1.799 L 45.874 42.419 C 45.598 42.554 45.299 42.621 45 42.621 z M 9.841 21.31 L 45 38.397 L 80.159 21.31 L 45 4.224 L 9.841 21.31 z" style="stroke: none; stroke-width: 1; stroke-dasharray: none; stroke-linecap: butt; stroke-linejoin: miter; stroke-miterlimit: 10; fill: rgb(0,0,0); fill-rule: nonzero; opacity: 1;" transform=" matrix(1 0 0 1 0 0) " stroke-linecap="round" />
	<path d="M 45 90 c -0.299 0 -0.598 -0.067 -0.874 -0.201 L 4.392 70.488 c -0.689 -0.335 -1.126 -1.033 -1.126 -1.799 V 21.31 c 0 -0.689 0.355 -1.33 0.939 -1.695 C 4.79 19.25 5.52 19.209 6.14 19.511 L 45 38.397 l 38.86 -18.886 c 0.618 -0.3 1.351 -0.262 1.935 0.104 c 0.585 0.366 0.939 1.006 0.939 1.695 v 47.379 c 0 0.766 -0.438 1.464 -1.126 1.799 L 45.874 89.799 C 45.598 89.933 45.299 90 45 90 z M 7.266 67.438 L 45 85.776 l 37.734 -18.339 V 24.506 l -36.86 17.914 c -0.552 0.269 -1.196 0.269 -1.748 0 L 7.266 24.506 V 67.438 z" style="stroke: none; stroke-width: 1; stroke-dasharray: none; stroke-linecap: butt; stroke-linejoin: miter; stroke-miterlimit: 10; fill: rgb(0,0,0); fill-rule: nonzero; opacity: 1;" transform=" matrix(1 0 0 1 0 0) " stroke-linecap="round" />
	<path d="M 45 90 c -1.104 0 -2 -0.896 -2 -2 V 40.621 c 0 -1.104 0.896 -2 2 -2 s 2 0.896 2 2 V 88 C 47 89.104 46.104 90 45 90 z" style="stroke: none; stroke-width: 1; stroke-dasharray: none; stroke-linecap: butt; stroke-linejoin: miter; stroke-miterlimit: 10; fill: rgb(0,0,0); fill-rule: nonzero; opacity: 1;" transform=" matrix(1 0 0 1 0 0) " stroke-linecap="round" />
</g>
</svg>